<svg xmlns="http://www.w3.org/2000/svg" width="93" height="99" viewBox="0 0 93 99">
  <g fill="none" fill-rule="evenodd">
    <path fill="#FFE438" d="M14.7878748 64.3274282L12 70.7232743C19.7907734 84.3213195 13.2411771 92 13.2411771 92L20.6118598 89.0311546C22.5977432 84.4312767 23.5143048 75.9279169 15.8190066 62L14.7878748 64.3274282zM35 80L40.1019737 77.8912882C40.1019737 77.8912882 45.9819079 73.4951601 46 62.5048399 43.6661184 60.6105733 41.2055921 58.4125093 38.6907895 56 40.4819079 66.0253165 37.40625 75.1034996 35 80z"/>
    <path fill="#EB2257" d="M9.47344633 49.0204778C10.5039548 45.9996587 11.1367232 40.8624573 8.06327684 33.8982935L.0723163842 52.9638225 9.47344633 49.0204778zM21.459887 43.9737201L27.6971751 41.3508532C31.0418079 33.8440273 34.8022599 19.0836177 25.5276836 5.04675768 24.1717514 3.21979522 23.0508475 1.53754266 22.219209.090443686L21.5322034 1.71843003 18.1694915 9.73174061C33.1570621 35.2730375 21.459887 43.9737201 21.459887 43.9737201zM50.9468927 18.5047782C50.9288136 29.6293515 45.0531073 34.0791809 45.0531073 34.0791809L63.9819209 26.1382253C61.7943503 26.3552901 56.8587571 23.4068259 50.9468927 18.5047782z" transform="translate(2 44)"/>
    <path fill="#00757D" d="M38.5155483,41.6530278 C35.1849427,39.0065466 32.2324059,37.0441899 30,36 C30.8281506,37.7823241 32.2504092,40.0327332 34.1407529,42.5531915 C36.8052373,46.1178396 40.405892,50.2405892 44.5826514,54.4173486 C47.5171849,57.3518822 50.4337152,59.9983633 53.1342062,62.2487725 C57.00491,65.4533552 60.4795417,67.8297872 63,69 C61.8657938,66.5875614 59.6693944,63.3469722 56.6988543,59.6923077 C54.3584288,56.8297872 51.5499182,53.7152209 48.4173486,50.5826514 C44.9787234,47.1440262 41.594108,44.101473 38.5155483,41.6530278 Z" opacity=".2"/>
    <path fill="#EB2257" d="M39,18.5 C39,20.425 37.425,22 35.5,22 C33.575,22 32,20.425 32,18.5 C32,16.575 33.575,15 35.5,15 C37.425,15 39,16.5575 39,18.5 Z"/>
    <path fill="#FFE438" d="M74,11.5 C74,13.425 72.425,15 70.5,15 C68.575,15 67,13.425 67,11.5 C67,9.575 68.575,8 70.5,8 C72.425,8 74,9.5575 74,11.5 Z"/>
    <path fill="#F37929" d="M85,42.5 C85,44.425 83.425,46 81.5,46 C79.575,46 78,44.425 78,42.5 C78,40.575 79.575,39 81.5,39 C83.425,39 85,40.5575 85,42.5 Z"/>
    <path fill="#00757D" d="M65.7558374,60.7860492 C64.9890805,59.6412661 64.1127869,58.4419695 63.1452126,57.2063306 C66.6503872,55.5890973 70.1190495,54.426143 73.5511995,53.6992966 C74.5370299,53.4994138 75.175994,52.5181712 74.9569206,51.5369285 C74.7561033,50.5556858 73.7885291,49.9196952 72.7844426,50.1377491 C68.8228651,50.9736225 64.8065193,52.3728019 60.7901735,54.2989449 C58.5446711,51.6277843 55.9705585,48.8475967 53.1956287,46.0855803 C50.2563938,43.1600234 47.2623905,40.4525205 44.4326923,38.1084408 C46.8790121,35.0193435 48.887185,31.5849941 50.3841866,27.8053927 C52.7392257,21.9179367 53.9441295,15.1946073 53.9441295,7.81711606 C53.9441295,6.81770223 53.1226042,6 52.1185177,6 C51.1144313,6 50.292906,6.81770223 50.292906,7.81711606 C50.292906,19.1922626 47.3719272,28.6049238 41.584738,35.8552169 C40.489371,35.0193435 39.4305162,34.2561547 38.4264297,33.5838218 C33.022619,29.9495897 29.7912862,29.0955451 27.9839306,30.8218054 C27.9656745,30.8399766 27.9656745,30.8399766 27.9474183,30.8581477 C27.9474183,30.8581477 27.9474183,30.8581477 27.9474183,30.8581477 C27.9474183,30.8581477 27.9474183,30.8581477 27.9474183,30.8581477 C27.4910154,31.3124267 27.1989175,31.8757327 27.0893808,32.5298945 L0.143351572,96.4923798 C-0.148746306,97.1647128 0.0155587507,97.9642438 0.544986155,98.4730363 C0.891852385,98.8182884 1.36651144,99 1.84117049,99 C2.07850001,99 2.31582954,98.9454865 2.55315907,98.8546307 L34.0814738,85.7168816 C34.0814738,85.7168816 34.0997299,85.7168816 34.0997299,85.7168816 L47.9743791,79.9202814 C47.9743791,79.9202814 47.9926352,79.9202814 47.9926352,79.9202814 L66.8146922,72.07034 C67.4171441,71.9794842 67.9465715,71.7250879 68.3847183,71.3253224 C68.4212306,71.3071512 68.4394867,71.2708089 68.4759989,71.2344666 C68.494255,71.2162954 68.494255,71.2162954 68.5125111,71.1981243 C68.5125111,71.1981243 68.5125111,71.1981243 68.5125111,71.1981243 C68.5307673,71.1799531 68.5307673,71.1799531 68.5490234,71.1617819 C70.2650984,69.3810082 69.4070609,66.1647128 65.7558374,60.7860492 Z M37.6414167,80.3018757 C38.9010888,77.5762016 40.1607609,73.9783118 40.9275178,69.9806565 C41.7672992,65.510551 42.1506777,59.623095 40.5806516,53.2813599 C41.4386891,54.1899179 42.3332388,55.098476 43.2460447,56.007034 C45.9844623,58.7327081 48.741136,61.2403283 51.3700169,63.4572098 C51.1144313,72.0339977 47.1528538,75.9407972 46.2948163,76.6858148 L37.6414167,80.3018757 Z M28.2942846,84.1905041 C28.677663,83.2456038 29.0062731,82.1735053 29.2436027,80.9560375 C30.7040921,73.5240328 28.3125407,64.3475967 22.1602291,53.6629543 L24.1318898,48.9747948 C25.7019159,50.8464244 27.4727593,53.4994138 28.203004,55.1711606 C28.4951019,55.8616647 29.1705782,56.2796014 29.8825668,56.2796014 C30.1198963,56.2796014 30.3754819,56.2250879 30.5945554,56.1342321 C31.5256173,55.7344666 31.945508,54.6623681 31.5438735,53.7538101 C30.4667625,51.2825322 27.7648572,47.412075 25.6836598,45.2860492 L28.6959191,38.126612 C29.2253465,39.0896835 29.8825668,40.1436108 30.6675798,41.3065651 C31.2152633,42.1060961 31.7994591,42.9237984 32.4384232,43.7778429 C38.6820153,53.2086753 38.5359664,62.8575615 37.3128065,69.3083236 C36.0166222,76.1588511 33.2416924,81.1740914 32.2193498,82.5550996 L28.2942846,84.1905041 Z M20.3528735,57.9513482 C26.030526,68.6723329 26.4504167,75.7590856 25.720172,79.9384525 C24.9899273,84.1178195 23.0365228,86.1348183 22.4705831,86.6254396 L17.6509681,88.6424385 C18.7280791,84.8446659 19.0019208,78.8300117 14.8760383,70.943728 L20.3528735,57.9513482 Z M54.8204231,66.2010551 C55.9157902,67.0369285 56.9929011,67.8001172 58.0152436,68.4906213 C59.1836352,69.2719812 60.24249,69.926143 61.2100642,70.4531067 L52.5931768,74.0509965 C53.5790071,72.0339977 54.4370446,69.4536928 54.8204231,66.2010551 Z M39.1749305,38.580891 C39.0471377,38.7080891 38.9193449,38.8534584 38.7915521,38.9806565 C38.0795635,39.6893318 38.0795635,40.8341149 38.7915521,41.5427902 C39.1566744,41.9062134 39.6130773,42.0697538 40.0877364,42.0697538 C40.5623954,42.0697538 41.0187984,41.8880422 41.3839207,41.5427902 C41.6212502,41.3065651 41.8403237,41.0885111 42.0593971,40.852286 C44.8343269,43.1236811 47.7553057,45.7948417 50.6215161,48.647714 C53.086092,51.1008206 55.4046189,53.6084408 57.4675601,56.007034 C57.13895,56.1887456 56.8103399,56.3704572 56.4817298,56.57034 C55.6054362,57.0791325 55.3133383,58.1875733 55.8062534,59.059789 C56.1531197,59.6412661 56.7555716,59.968347 57.3945357,59.968347 C57.7048897,59.968347 58.0152436,59.8956624 58.3073415,59.7321219 C58.8185128,59.4413834 59.3296841,59.1688159 59.8225993,58.8962485 C60.6076123,59.8956624 61.3561131,60.876905 62.0133334,61.8036342 C64.7334948,65.619578 65.4637395,67.5820633 65.6645568,68.4179367 C64.8065193,68.2180539 62.8531148,67.4912075 59.0193301,64.7837046 C55.0577526,61.9853458 50.3659305,57.9513482 45.8201572,53.4449004 C41.274384,48.9202814 37.2397821,44.2684642 34.42834,40.3071512 C31.7081785,36.4912075 30.9779338,34.5287222 30.7771165,33.6928488 C31.635154,33.8927315 33.5885586,34.619578 37.4223433,37.3270809 C38.006539,37.7086753 38.5907348,38.1447831 39.1749305,38.580891 Z M12.9774021,75.468347 C14.4926598,79.2479484 15.0220872,82.8458382 14.4926598,86.0803048 C14.1092814,88.4425557 13.2695,90.0052755 12.8496093,90.6412661 L5.23680832,93.8212192 L12.9774021,75.468347 Z"/>
    <path fill="#00757D" d="M32.8204555 58.1733921C32.359892 57.1781076 31.1784465 56.7202767 30.1772214 57.1781076 29.1960209 57.6160327 28.7554819 58.7307514 29.1359474 59.7260359 29.4363149 60.5222634 30.1972459 61 30.998226 61 31.2184955 61 31.438765 60.9601886 31.6590345 60.8805659 32.7003085 60.5222634 33.2609945 59.3876391 32.880529 58.3525433 32.8605045 58.2928262 32.84048 58.2331091 32.8204555 58.1733921zM67.5231956 34.4464395C67.882457 34.8282054 68.3315336 35 68.7985734 35 69.2656131 35 69.7146898 34.8091171 70.0739511 34.4464395 74.0797149 30.1897502 80.582345 28.2236561 85.3425577 27.8228019 86.3305263 27.7464488 87.0670121 26.8111224 86.9951598 25.7612663 86.9233075 24.7114102 86.0431173 23.9287902 85.0551486 24.0051434 79.6662286 24.4632624 72.2474821 26.7347693 67.5411587 31.7359019 66.822636 32.4803454 66.822636 33.6829078 67.5231956 34.4464395z"/>
    <path fill="#A8B723" d="M91.5656961,24.0973693 C91.5077754,24.0774579 91.4498547,24.0774579 91.391934,24.0575465 C90.3493616,23.7986985 89.3067891,24.4358627 89.0557995,25.5110773 C88.8048098,26.5862919 89.4226305,27.6615065 90.465203,27.9203545 L90.5617374,27.9402659 C90.7354995,27.9800886 90.8899547,28 91.0637168,28 C91.9132203,28 92.7048031,27.4225699 92.9364858,26.5265578 C93.2067824,25.4712546 92.5889617,24.39604 91.5656961,24.0973693 Z"/>
    <path fill="#00757D" d="M13.8333333 21.3333333L15.6666667 21.3333333 15.6666667 23.1666667C15.6666667 24.175 16.4916667 25 17.5 25 18.5083333 25 19.3333333 24.175 19.3333333 23.1666667L19.3333333 21.3333333 21.1666667 21.3333333C22.175 21.3333333 23 20.5083333 23 19.5 23 18.4916667 22.175 17.6666667 21.1666667 17.6666667L19.3333333 17.6666667 19.3333333 15.8333333C19.3333333 14.825 18.5083333 14 17.5 14 16.4916667 14 15.6666667 14.825 15.6666667 15.8333333L15.6666667 17.6666667 13.8333333 17.6666667C12.825 17.6666667 12 18.4916667 12 19.5 12 20.5083333 12.825 21.3333333 13.8333333 21.3333333zM55.8333333 38.3333333L57.6666667 38.3333333 57.6666667 40.1666667C57.6666667 41.175 58.4916667 42 59.5 42 60.5083333 42 61.3333333 41.175 61.3333333 40.1666667L61.3333333 38.3333333 63.1666667 38.3333333C64.175 38.3333333 65 37.5083333 65 36.5 65 35.4916667 64.175 34.6666667 63.1666667 34.6666667L61.3333333 34.6666667 61.3333333 32.8333333C61.3333333 31.825 60.5083333 31 59.5 31 58.4916667 31 57.6666667 31.825 57.6666667 32.8333333L57.6666667 34.6666667 55.8333333 34.6666667C54.825 34.6666667 54 35.4916667 54 36.5 54 37.5083333 54.825 38.3333333 55.8333333 38.3333333zM81.1666667 81.6666667L79.3333333 81.6666667 79.3333333 79.8333333C79.3333333 78.825 78.5083333 78 77.5 78 76.4916667 78 75.6666667 78.825 75.6666667 79.8333333L75.6666667 81.6666667 73.8333333 81.6666667C72.825 81.6666667 72 82.4916667 72 83.5 72 84.5083333 72.825 85.3333333 73.8333333 85.3333333L75.6666667 85.3333333 75.6666667 87.1666667C75.6666667 88.175 76.4916667 89 77.5 89 78.5083333 89 79.3333333 88.175 79.3333333 87.1666667L79.3333333 85.3333333 81.1666667 85.3333333C82.175 85.3333333 83 84.5083333 83 83.5 83 82.4916667 82.175 81.6666667 81.1666667 81.6666667zM70.5 17C73.525 17 76 14.525 76 11.5 76 8.475 73.525 6 70.5 6 67.475 6 65 8.475 65 11.5 65 14.525 67.475 17 70.5 17zM70.5 9.66666667C71.5083333 9.66666667 72.3333333 10.4916667 72.3333333 11.5 72.3333333 12.5083333 71.5083333 13.3333333 70.5 13.3333333 69.4916667 13.3333333 68.6666667 12.5083333 68.6666667 11.5 68.6666667 10.4733333 69.4916667 9.66666667 70.5 9.66666667zM82.5 38C79.475 38 77 40.475 77 43.5 77 46.525 79.475 49 82.5 49 85.525 49 88 46.525 88 43.5 88 40.4566667 85.525 38 82.5 38zM82.5 45.3333333C81.4916667 45.3333333 80.6666667 44.5083333 80.6666667 43.5 80.6666667 42.4916667 81.4916667 41.6666667 82.5 41.6666667 83.5083333 41.6666667 84.3333333 42.4916667 84.3333333 43.5 84.3333333 44.5083333 83.5083333 45.3333333 82.5 45.3333333zM36.5 23C39.525 23 42 20.525 42 17.5 42 14.475 39.525 12 36.5 12 33.475 12 31 14.475 31 17.5 31 20.525 33.4566667 23 36.5 23zM36.5 15.6666667C37.5083333 15.6666667 38.3333333 16.4916667 38.3333333 17.5 38.3333333 18.5083333 37.5083333 19.3333333 36.5 19.3333333 35.4916667 19.3333333 34.6666667 18.5083333 34.6666667 17.5 34.6666667 16.4916667 35.4916667 15.6666667 36.5 15.6666667z"/>
    <path fill="#EB2257" d="M82,60 C82,58.9 81.1,58 80,58 C78.9,58 78,58.9 78,60 C78,61.1 78.9,62 80,62 C81.1,62 82,61.1 82,60 Z"/>
    <path fill="#F37929" d="M61,23 C62.1,23 63,22.1 63,21 C63,19.9 62.1,19 61,19 C59.9,19 59,19.9 59,21 C59,22.1 59.9,23 61,23 Z"/>
    <path fill="#FFE438" d="M85,71 C83.9,71 83,71.9 83,73 C83,74.1 83.9,75 85,75 C86.1,75 87,74.1 87,73 C87,71.9 86.1,71 85,71 Z"/>
    <path fill="#EB2257" d="M86,8 C84.9,8 84,8.9 84,10 C84,11.1 84.9,12 86,12 C87.1,12 88,11.1 88,10 C88,8.9 87.1,8 86,8 Z"/>
    <path fill="#A8B723" d="M25,12 C26.1,12 27,11.1 27,10 C27,8.9 26.1,8 25,8 C23.9,8 23,8.9 23,10 C23,11.1 23.9,12 25,12 Z"/>
    <path fill="#FFE438" d="M51,4 C52.1,4 53,3.1 53,2 C53,0.9 52.1,0 51,0 C49.9,0 49,0.9 49,2 C49,3.1 49.9,4 51,4 Z"/>
  </g>
</svg>
