<svg width="19px" height="18px" viewBox="0 0 19 18" version="1.1" xmlns="http://www.w3.org/2000/svg" xmlns:xlink="http://www.w3.org/1999/xlink">
    <g>
        <path fill="#00757D" fill-rule="nonzero" d="M14.25,14.25 L3.75,14.25 L3.75,3.75 L9,3.75 L9,2.25 L3.75,2.25 C2.9175,2.25 2.25,2.925 2.25,3.75 L2.25,14.25 C2.25,15.075 2.9175,15.75 3.75,15.75 L14.25,15.75 C15.075,15.75 15.75,15.075 15.75,14.25 L15.75,9 L14.25,9 L14.25,14.25 Z M10.5000001,2.25 L10.5000001,3.75 L13.1925,3.75 L5.82000017,11.1224998 L6.87750015,12.1799998 L14.25,4.80749996 L14.25,7.49999991 L15.75,7.49999991 L15.75,2.25 L10.5000001,2.25 Z" id="path-1"></path>
    </g>
</svg>
