<svg width="26.000000000000004" height="28" xmlns="http://www.w3.org/2000/svg" version="1.1">

 <g>
  <title>Layer 1</title>
  <path fill="#00757d" id="svg_1" d="m0,21.5l0,-6.5q0,-1.234 0.883,-2.117t2.117,-0.883l1,0l0,-8.5q0,-0.625 0.438,-1.062t1.062,-0.438l10.5,0q0.625,0 1.375,0.313t1.188,0.75l2.375,2.375q0.438,0.438 0.75,1.188t0.313,1.375l0,4l1,0q1.234,0 2.117,0.883t0.883,2.117l0,6.5q0,0.203 -0.148,0.352t-0.352,0.148l-3.5,0l0,2.5q0,0.625 -0.438,1.062t-1.062,0.438l-15,0q-0.625,0 -1.062,-0.438t-0.438,-1.062l0,-2.5l-3.5,0q-0.203,0 -0.352,-0.148t-0.148,-0.352l-0.001,-0.001zm6,2.5l14,0l0,-4l-14,0l0,4zm0,-10l14,0l0,-6l-2.5,0q-0.625,0 -1.062,-0.438t-0.438,-1.062l0,-2.5l-10,0l0,10zm16,1q0,0.406 0.297,0.703t0.703,0.297t0.703,-0.297t0.297,-0.703t-0.297,-0.703t-0.703,-0.297t-0.703,0.297t-0.297,0.703z"/>
 </g>
</svg>